/* XPM */
static char * close_prelight_xpm[] = {
"24 24 140 2",
"  	c None",
". 	c #313133",
"+ 	c #4B5252",
"@ 	c #4B5151",
"# 	c #416A96",
"$ 	c #2D85D2",
"% 	c #1593F0",
"& 	c #0D96F6",
"* 	c #1693F0",
"= 	c #2D86D2",
"- 	c #416995",
"; 	c #4A5152",
"> 	c #4A5151",
", 	c #4B5152",
"' 	c #45607D",
") 	c #208EE5",
"! 	c #0E93EF",
"~ 	c #0088DE",
"{ 	c #007FD0",
"] 	c #007DCC",
"^ 	c #0080D1",
"/ 	c #0189DF",
"( 	c #0E92EF",
"_ 	c #208EE4",
": 	c #455F7C",
"< 	c #4A5051",
"[ 	c #495150",
"} 	c #416892",
"| 	c #1095F4",
"1 	c #0188DC",
"2 	c #0188DD",
"3 	c #0E95F5",
"4 	c #416791",
"5 	c #4A5050",
"6 	c #495050",
"7 	c #44607C",
"8 	c #0F96F5",
"9 	c #0082D5",
"0 	c #0F97F4",
"a 	c #455F7A",
"b 	c #494F50",
"c 	c #49504F",
"d 	c #1F8EE5",
"e 	c #1085CF",
"f 	c #65B0E0",
"g 	c #0881CE",
"h 	c #0187DC",
"i 	c #208EE3",
"j 	c #484F4F",
"k 	c #494F4F",
"l 	c #3F6995",
"m 	c #0D92EE",
"n 	c #FFFFFF",
"o 	c #B8DBF1",
"p 	c #64B0E0",
"q 	c #0D93EF",
"r 	c #3F6894",
"s 	c #484F4E",
"t 	c #484E4E",
"u 	c #474F4E",
"v 	c #2A85D2",
"w 	c #0188DE",
"x 	c #0680CD",
"y 	c #B3D8F0",
"z 	c #B9DBF1",
"A 	c #0982CE",
"B 	c #0781CD",
"C 	c #2B84D1",
"D 	c #484E4F",
"E 	c #474D4E",
"F 	c #474E4E",
"G 	c #1493EF",
"H 	c #BBDCF1",
"I 	c #B6DAF0",
"J 	c #1493EE",
"K 	c #484D4E",
"L 	c #474D4D",
"M 	c #474E4D",
"N 	c #0B98F8",
"O 	c #007ECC",
"P 	c #B5D9F0",
"Q 	c #BBDDF2",
"R 	c #0B96F6",
"S 	c #464D4D",
"T 	c #0B97F7",
"U 	c #464D4C",
"V 	c #474D4C",
"W 	c #464C4C",
"X 	c #1393EF",
"Y 	c #B6D9F1",
"Z 	c #1492F0",
"` 	c #464C4B",
" .	c #454C4C",
"..	c #2A83D0",
"+.	c #018ADF",
"@.	c #2A83CE",
"#.	c #454C4B",
"$.	c #454B4B",
"%.	c #3C6694",
"&.	c #0C92EF",
"*.	c #66B1E0",
"=.	c #0C93EF",
"-.	c #3C6592",
";.	c #444B4B",
">.	c #444A4A",
",.	c #444B4A",
"'.	c #444A4B",
").	c #1D8EE4",
"!.	c #1E8CE3",
"~.	c #444A49",
"{.	c #3F5A78",
"].	c #0E97F4",
"^.	c #0082D6",
"/.	c #405976",
"(.	c #434A49",
"_.	c #3B638E",
":.	c #0D95F4",
"<.	c #0189DE",
"[.	c #0C95F5",
"}.	c #3B648D",
"|.	c #434949",
"1.	c #434948",
"2.	c #3F5A76",
"3.	c #1D8DE3",
"4.	c #1E8CE2",
"5.	c #3F5976",
"6.	c #424949",
"7.	c #424848",
"8.	c #3A6591",
"9.	c #2783CF",
"0.	c #1293EE",
"a.	c #0A96F6",
"b.	c #1392EF",
"c.	c #2782CE",
"d.	c #3A6491",
"e.	c #424747",
"f.	c #414847",
"g.	c #414748",
"h.	c #424748",
"i.	c #414747",
". . . . . . . . . . . . . . . . . . . . . . . . ",
"+ + + + + + + + + + + + + + + + + + + + + + + + ",
"+ + + + + + + + + + + + + + + + + + + + + + + + ",
"+ + + + + + + + + + + + + + + + + + + + + + + + ",
"@ + @ @ + @ + @ # $ % & & * = - + @ + @ + + + + ",
"; > , ; > ; ' ) ! ~ { ] ] ^ / ( _ : > ; > ; @ > ",
"< < [ < < } | 1 ] ] ] ] ] ] ] ] 2 3 4 < < < [ > ",
"5 [ 6 5 7 8 9 ] ] ] ] ] ] ] ] ] ] 9 0 a [ [ 6 < ",
"b c c b d 1 ] e f g ] ] ] ] g f e ] h i c 6 b b ",
"j j k l m ] ] f n o g ] ] g o n p ] ] q r k k j ",
"s t u v w ] ] x y n z A B y n z A ] ] / C j D D ",
"E F F G { ] ] ] x y n H I n z A ] ] ] ^ J F K t ",
"L L M N O ] ] ] ] x P n n Q A ] ] ] ] O R M L L ",
"S S L T O ] ] ] ] B P n n H A ] ] ] ] O R S U V ",
"W W U X { ] ] ] B y n H Y n z A ] ] ] ^ Z W U W ",
"`  . .../ ] ] B y n z A x y n z A ] ] +.@.W #.$.",
"$.$.$.%.&.] ] *.n o g ] ] g o n f ] ] =.-.$.$.;.",
">.,.'.>.).1 ] e f g ] ] ] ] g p e ] 2 !.,.;.$.>.",
">.>.~.>.{.].9 ] ] ] ] ] ] ] ] ] ] ^.]./.>.>.>.>.",
"(.(.~.(.(._.:.h ] ] ] ] ] ] ] ] <.[.}.(.(.|.|.>.",
"|.1.|.|.1.|.2.3.=./ ^ ] ] ^ / =.4.5.1.|.1.|.6.|.",
"6.7.7.6.7.6.7.6.8.9.0.a.a.b.c.d.7.6.7.6.7.7.7.7.",
"e.f.g.e.f.e.f.e.f.e.f.e.f.e.f.e.f.e.f.e.f.h.7.7.",
"i.i.i.i.i.i.i.i.i.i.i.i.i.i.i.i.i.i.i.i.i.g.e.i."};
