/* XPM */
static char * close_active_xpm[] = {
"24 24 123 2",
"  	c None",
". 	c #313133",
"+ 	c #4B5252",
"@ 	c #4B5151",
"# 	c #416A96",
"$ 	c #2D85D2",
"% 	c #1593F0",
"& 	c #0D96F6",
"* 	c #1693F0",
"= 	c #2D86D2",
"- 	c #416995",
"; 	c #4A5152",
"> 	c #4A5151",
", 	c #4B5152",
"' 	c #45607D",
") 	c #208EE5",
"! 	c #0E93EF",
"~ 	c #0088DE",
"{ 	c #007FD0",
"] 	c #007DCC",
"^ 	c #0080D1",
"/ 	c #0189DF",
"( 	c #0E92EF",
"_ 	c #208EE4",
": 	c #455F7C",
"< 	c #4A5051",
"[ 	c #495150",
"} 	c #416892",
"| 	c #1095F4",
"1 	c #0188DC",
"2 	c #0188DD",
"3 	c #0E95F5",
"4 	c #416791",
"5 	c #4A5050",
"6 	c #495050",
"7 	c #44607C",
"8 	c #0F96F5",
"9 	c #0082D5",
"0 	c #0F97F4",
"a 	c #455F7A",
"b 	c #494F50",
"c 	c #49504F",
"d 	c #1F8EE5",
"e 	c #0187DC",
"f 	c #208EE3",
"g 	c #484F4F",
"h 	c #494F4F",
"i 	c #3F6995",
"j 	c #0D92EE",
"k 	c #0D93EF",
"l 	c #3F6894",
"m 	c #484F4E",
"n 	c #484E4E",
"o 	c #474F4E",
"p 	c #2A85D2",
"q 	c #0188DE",
"r 	c #2B84D1",
"s 	c #484E4F",
"t 	c #474D4E",
"u 	c #474E4E",
"v 	c #1493EF",
"w 	c #1493EE",
"x 	c #484D4E",
"y 	c #474D4D",
"z 	c #474E4D",
"A 	c #0B98F8",
"B 	c #007ECC",
"C 	c #0B96F6",
"D 	c #464D4D",
"E 	c #0B97F7",
"F 	c #464D4C",
"G 	c #474D4C",
"H 	c #464C4C",
"I 	c #1393EF",
"J 	c #1492F0",
"K 	c #464C4B",
"L 	c #454C4C",
"M 	c #2A83D0",
"N 	c #018ADF",
"O 	c #2A83CE",
"P 	c #454C4B",
"Q 	c #454B4B",
"R 	c #3C6694",
"S 	c #0C92EF",
"T 	c #0C93EF",
"U 	c #3C6592",
"V 	c #444B4B",
"W 	c #444A4A",
"X 	c #444B4A",
"Y 	c #444A4B",
"Z 	c #1D8EE4",
"` 	c #1E8CE3",
" .	c #444A49",
"..	c #3F5A78",
"+.	c #0E97F4",
"@.	c #0082D6",
"#.	c #405976",
"$.	c #434A49",
"%.	c #3B638E",
"&.	c #0D95F4",
"*.	c #0189DE",
"=.	c #0C95F5",
"-.	c #3B648D",
";.	c #434949",
">.	c #434948",
",.	c #3F5A76",
"'.	c #1D8DE3",
").	c #1E8CE2",
"!.	c #3F5976",
"~.	c #424949",
"{.	c #424848",
"].	c #3A6591",
"^.	c #2783CF",
"/.	c #1293EE",
"(.	c #0A96F6",
"_.	c #1392EF",
":.	c #2782CE",
"<.	c #3A6491",
"[.	c #424747",
"}.	c #414847",
"|.	c #414748",
"1.	c #424748",
"2.	c #414747",
". . . . . . . . . . . . . . . . . . . . . . . . ",
"+ + + + + + + + + + + + + + + + + + + + + + + + ",
"+ + + + + + + + + + + + + + + + + + + + + + + + ",
"+ + + + + + + + + + + + + + + + + + + + + + + + ",
"@ + @ @ + @ + @ # $ % & & * = - + @ + @ + + + + ",
"; > , ; > ; ' ) ! ~ { ] ] ^ / ( _ : > ; > ; @ > ",
"< < [ < < } | 1 ] ] ] ] ] ] ] ] 2 3 4 < < < [ > ",
"5 [ 6 5 7 8 9 ] ] ] ] ] ] ] ] ] ] 9 0 a [ [ 6 < ",
"b c c b d 1 ] ] ] ] ] ] ] ] ] ] ] ] e f c 6 b b ",
"g g h i j ] ] ] ] ] ] ] ] ] ] ] ] ] ] k l h h g ",
"m n o p q ] ] ] ] ] ] ] ] ] ] ] ] ] ] / r g s s ",
"t u u v { ] ] ] ] ] ] ] ] ] ] ] ] ] ] ^ w u x n ",
"y y z A B ] ] ] ] ] ] ] ] ] ] ] ] ] ] B C z y y ",
"D D y E B ] ] ] ] ] ] ] ] ] ] ] ] ] ] B C D F G ",
"H H F I { ] ] ] ] ] ] ] ] ] ] ] ] ] ] ^ J H F H ",
"K L L M / ] ] ] ] ] ] ] ] ] ] ] ] ] ] N O H P Q ",
"Q Q Q R S ] ] ] ] ] ] ] ] ] ] ] ] ] ] T U Q Q V ",
"W X Y W Z 1 ] ] ] ] ] ] ] ] ] ] ] ] 2 ` X V Q W ",
"W W  .W ..+.9 ] ] ] ] ] ] ] ] ] ] @.+.#.W W W W ",
"$.$. .$.$.%.&.e ] ] ] ] ] ] ] ] *.=.-.$.$.;.;.W ",
";.>.;.;.>.;.,.'.T / ^ ] ] ^ / T ).!.>.;.>.;.~.;.",
"~.{.{.~.{.~.{.~.].^./.(.(._.:.<.{.~.{.~.{.{.{.{.",
"[.}.|.[.}.[.}.[.}.[.}.[.}.[.}.[.}.[.}.[.}.1.{.{.",
"2.2.2.2.2.2.2.2.2.2.2.2.2.2.2.2.2.2.2.2.2.|.[.2."};
