/* XPM */
static char * hide_pressed_xpm[] = {
"24 24 110 2",
"  	c None",
". 	c #313133",
"+ 	c #4B5252",
"@ 	c #4B5151",
"# 	c #4B5251",
"$ 	c #4A5252",
"% 	c #5A605F",
"& 	c #717374",
"* 	c #818282",
"= 	c #868686",
"- 	c #717474",
"; 	c #5A5F5E",
"> 	c #4B5152",
", 	c #4A5152",
"' 	c #4A5151",
") 	c #4A5251",
"! 	c #545959",
"~ 	c #7B7C7C",
"{ 	c #818181",
"] 	c #787878",
"^ 	c #707070",
"/ 	c #6D6D6D",
"( 	c #777777",
"_ 	c #7A7C7C",
": 	c #535858",
"< 	c #4A5051",
"[ 	c #495150",
"} 	c #4A5150",
"| 	c #4A5050",
"1 	c #575D5D",
"2 	c #838383",
"3 	c #757575",
"4 	c #767676",
"5 	c #838484",
"6 	c #495050",
"7 	c #525858",
"8 	c #848484",
"9 	c #727272",
"0 	c #505656",
"a 	c #494F50",
"b 	c #49504F",
"c 	c #485050",
"d 	c #7C7D7D",
"e 	c #797B7B",
"f 	c #484F4F",
"g 	c #494F4F",
"h 	c #585D5D",
"i 	c #484F4E",
"j 	c #484E4E",
"k 	c #474F4E",
"l 	c #707373",
"m 	c #6F7272",
"n 	c #484E4F",
"o 	c #474D4E",
"p 	c #474E4E",
"q 	c #808181",
"r 	c #484D4E",
"s 	c #474D4D",
"t 	c #474E4D",
"u 	c #858585",
"v 	c #6E6E6E",
"w 	c #AFAFAF",
"x 	c #F1F1F1",
"y 	c #464D4D",
"z 	c #B6B6B6",
"A 	c #FFFFFF",
"B 	c #464D4C",
"C 	c #474D4C",
"D 	c #464C4C",
"E 	c #A7A7A7",
"F 	c #E2E2E2",
"G 	c #808080",
"H 	c #464C4B",
"I 	c #454C4C",
"J 	c #707272",
"K 	c #6E7070",
"L 	c #454C4B",
"M 	c #454B4B",
"N 	c #565A5A",
"O 	c #545A59",
"P 	c #444B4B",
"Q 	c #444A4A",
"R 	c #444B4A",
"S 	c #444A4B",
"T 	c #797A7A",
"U 	c #444A49",
"V 	c #43494A",
"W 	c #4D5252",
"X 	c #434A49",
"Y 	c #434949",
"Z 	c #535857",
"` 	c #828383",
" .	c #434948",
"..	c #434848",
"+.	c #4B5050",
"@.	c #787A7A",
"#.	c #424949",
"$.	c #424848",
"%.	c #424948",
"&.	c #6D6F6F",
"*.	c #7F8080",
"=.	c #525758",
"-.	c #424849",
";.	c #424747",
">.	c #414847",
",.	c #414748",
"'.	c #424748",
").	c #414848",
"!.	c #424847",
"~.	c #414747",
". . . . . . . . . . . . . . . . . . . . . . . . ",
"+ + + + + + + + + + + + + + + + + + + + + + + + ",
"+ + + + + + + + + + + + + + + + + + + + + + + + ",
"+ + + + + + + + + + + + + + + + + + + + + + + + ",
"@ + @ + # $ # + % & * = = * - ; > + + + # + + + ",
", ' > ) @ ' ! ~ { ] ^ / / ^ ( { _ : , ' @ , @ ' ",
"< < [ } | 1 2 3 / / / / / / / / 4 5 1 < ' < [ ' ",
"| [ 6 6 7 8 9 / / / / / / / / / / 9 8 0 | [ 6 < ",
"a b b c d 3 / / / / / / / / / / / / 3 e 6 6 a a ",
"f f g h { / / / / / / / / / / / / / / { h g g f ",
"i j k l ( / / / / / / / / / / / / / / ( m f n n ",
"o p p q ^ / / / / / / / / / / / / / / ^ * p r j ",
"s s t u v / / w x x x x x x x x w / / v = t s s ",
"y y s = v / / z A A A A A A A A z / / v 8 y B C ",
"D D B q ^ / / E F F F F F F F F E / / ^ G D B D ",
"H I I J ( / / / / / / / / / / / / / / ( K D L M ",
"M M M N q / / / / / / / / / / / / / / q O M M P ",
"Q R S R T 3 / / / / / / / / / / / / ( e R P M Q ",
"Q Q U V W 5 9 / / / / / / / / / / 9 5 + Q Q Q Q ",
"X X U Y X Z ` 4 / / / / / / / / 4 2 7 V Y Y Y Q ",
"Y  .Y ..Y Y +.@.q ( ^ / / ^ ( q T } Y Y  .Y #.Y ",
"#.$.$...$.%.$.%.: &.q = = *.K =.-.$.$.$.%.$.$.$.",
";.>.,.'.'.).!.$.).,.!.$.>.).'.$.$.$.$.).).'.$.$.",
"~.~.~.~.~.~.~.,.,.;.!.~.~.~.~.~.;.;.~.,.>.,.;.~."};
