/* XPM */
static char * hide_active_xpm[] = {
"24 24 104 2",
"  	c None",
". 	c #313133",
"+ 	c #4B5252",
"@ 	c #4B5151",
"# 	c #4B5251",
"$ 	c #4A5252",
"% 	c #5A605F",
"& 	c #717374",
"* 	c #818282",
"= 	c #868686",
"- 	c #717474",
"; 	c #5A5F5E",
"> 	c #4B5152",
", 	c #4A5152",
"' 	c #4A5151",
") 	c #4A5251",
"! 	c #545959",
"~ 	c #7B7C7C",
"{ 	c #818181",
"] 	c #787878",
"^ 	c #707070",
"/ 	c #6D6D6D",
"( 	c #777777",
"_ 	c #7A7C7C",
": 	c #535858",
"< 	c #4A5051",
"[ 	c #495150",
"} 	c #4A5150",
"| 	c #4A5050",
"1 	c #575D5D",
"2 	c #838383",
"3 	c #757575",
"4 	c #767676",
"5 	c #838484",
"6 	c #495050",
"7 	c #525858",
"8 	c #848484",
"9 	c #727272",
"0 	c #505656",
"a 	c #494F50",
"b 	c #49504F",
"c 	c #485050",
"d 	c #7C7D7D",
"e 	c #797B7B",
"f 	c #484F4F",
"g 	c #494F4F",
"h 	c #585D5D",
"i 	c #484F4E",
"j 	c #484E4E",
"k 	c #474F4E",
"l 	c #707373",
"m 	c #6F7272",
"n 	c #484E4F",
"o 	c #474D4E",
"p 	c #474E4E",
"q 	c #808181",
"r 	c #484D4E",
"s 	c #474D4D",
"t 	c #474E4D",
"u 	c #858585",
"v 	c #6E6E6E",
"w 	c #464D4D",
"x 	c #464D4C",
"y 	c #474D4C",
"z 	c #464C4C",
"A 	c #808080",
"B 	c #464C4B",
"C 	c #454C4C",
"D 	c #707272",
"E 	c #6E7070",
"F 	c #454C4B",
"G 	c #454B4B",
"H 	c #565A5A",
"I 	c #545A59",
"J 	c #444B4B",
"K 	c #444A4A",
"L 	c #444B4A",
"M 	c #444A4B",
"N 	c #797A7A",
"O 	c #444A49",
"P 	c #43494A",
"Q 	c #4D5252",
"R 	c #434A49",
"S 	c #434949",
"T 	c #535857",
"U 	c #828383",
"V 	c #434948",
"W 	c #434848",
"X 	c #4B5050",
"Y 	c #787A7A",
"Z 	c #424949",
"` 	c #424848",
" .	c #424948",
"..	c #6D6F6F",
"+.	c #7F8080",
"@.	c #525758",
"#.	c #424849",
"$.	c #424747",
"%.	c #414847",
"&.	c #414748",
"*.	c #424748",
"=.	c #414848",
"-.	c #424847",
";.	c #414747",
". . . . . . . . . . . . . . . . . . . . . . . . ",
"+ + + + + + + + + + + + + + + + + + + + + + + + ",
"+ + + + + + + + + + + + + + + + + + + + + + + + ",
"+ + + + + + + + + + + + + + + + + + + + + + + + ",
"@ + @ + # $ # + % & * = = * - ; > + + + # + + + ",
", ' > ) @ ' ! ~ { ] ^ / / ^ ( { _ : , ' @ , @ ' ",
"< < [ } | 1 2 3 / / / / / / / / 4 5 1 < ' < [ ' ",
"| [ 6 6 7 8 9 / / / / / / / / / / 9 8 0 | [ 6 < ",
"a b b c d 3 / / / / / / / / / / / / 3 e 6 6 a a ",
"f f g h { / / / / / / / / / / / / / / { h g g f ",
"i j k l ( / / / / / / / / / / / / / / ( m f n n ",
"o p p q ^ / / / / / / / / / / / / / / ^ * p r j ",
"s s t u v / / / / / / / / / / / / / / v = t s s ",
"w w s = v / / / / / / / / / / / / / / v 8 w x y ",
"z z x q ^ / / / / / / / / / / / / / / ^ A z x z ",
"B C C D ( / / / / / / / / / / / / / / ( E z F G ",
"G G G H q / / / / / / / / / / / / / / q I G G J ",
"K L M L N 3 / / / / / / / / / / / / ( e L J G K ",
"K K O P Q 5 9 / / / / / / / / / / 9 5 + K K K K ",
"R R O S R T U 4 / / / / / / / / 4 2 7 P S S S K ",
"S V S W S S X Y q ( ^ / / ^ ( q N } S S V S Z S ",
"Z ` ` W `  .`  .: ..q = = +.E @.#.` ` `  .` ` ` ",
"$.%.&.*.*.=.-.` =.&.-.` %.=.*.` ` ` ` =.=.*.` ` ",
";.;.;.;.;.;.;.&.&.$.-.;.;.;.;.;.$.$.;.&.%.&.$.;."};
