<?xml version="1.0" encoding="UTF-8" standalone="no"?>
<svg
   xmlns:dc="http://purl.org/dc/elements/1.1/"
   xmlns:cc="http://creativecommons.org/ns#"
   xmlns:rdf="http://www.w3.org/1999/02/22-rdf-syntax-ns#"
   xmlns:svg="http://www.w3.org/2000/svg"
   xmlns="http://www.w3.org/2000/svg"
   id="svg34"
   version="1.1"
   width="16"
   height="16">
  <metadata
     id="metadata38">
    <rdf:RDF>
      <cc:Work
         rdf:about="">
        <dc:format>image/svg+xml</dc:format>
        <dc:type
           rdf:resource="http://purl.org/dc/dcmitype/StillImage" />
        <dc:title></dc:title>
      </cc:Work>
    </rdf:RDF>
  </metadata>
  <defs
     id="defs22">
    <linearGradient
       x1="7.467"
       y1="2.1648"
       x2="7.467"
       gradientUnits="userSpaceOnUse"
       y2="11.901"
       id="d">
      <stop
         id="stop2"
         offset="0"
         stop-color="#8eae68" />
      <stop
         id="stop4"
         offset="1"
         stop-color="#7c8d67" />
    </linearGradient>
    <linearGradient
       x1="7.467"
       y1="2.1648"
       x2="7.467"
       gradientUnits="userSpaceOnUse"
       y2="11.901"
       id="c">
      <stop
         id="stop7"
         offset="0"
         stop-color="#cbccc8" />
      <stop
         id="stop9"
         offset="1"
         stop-color="#bcea90" />
    </linearGradient>
    <linearGradient
       x1="7.467"
       y1="2.1648"
       x2="7.467"
       gradientUnits="userSpaceOnUse"
       y2="11.901"
       id="b">
      <stop
         id="stop12"
         offset="0"
         stop-color="#c0e49a" />
      <stop
         id="stop14"
         offset="1"
         stop-color="#b9de92" />
    </linearGradient>
    <linearGradient
       x1="7.467"
       y1="2.1648"
       x2="7.467"
       gradientUnits="userSpaceOnUse"
       y2="11.901"
       id="a">
      <stop
         id="stop17"
         offset="0"
         stop-color="#8ea476" />
      <stop
         id="stop19"
         offset="1"
         stop-color="#6c7e58" />
    </linearGradient>
  </defs>
  <path
     id="path4515"
     d="M 8 0 A 8 8 0 0 0 0 8 A 8 8 0 0 0 8 16 A 8 8 0 0 0 16 8 A 8 8 0 0 0 8 0 z M 8 2 A 6 6 0 0 1 14 8 A 6 6 0 0 1 8 14 A 6 6 0 0 1 2 8 A 6 6 0 0 1 8 2 z "
     style="opacity:1;fill:#797979;fill-opacity:1;stroke:none;stroke-width:2.63687158;stroke-miterlimit:4;stroke-dasharray:none;stroke-opacity:1" />
  <circle
     r="4"
     cy="8"
     cx="8"
     id="path4612"
     style="opacity:1;fill:#797979;fill-opacity:1;stroke:none;stroke-width:2.57494593;stroke-miterlimit:4;stroke-dasharray:none;stroke-opacity:1" />
</svg>
