/* XPM */
static char * close_active_xpm[] = {
"24 24 131 2",
"  	c None",
". 	c #313133",
"+ 	c #4B5252",
"@ 	c #4B5151",
"# 	c #4B5251",
"$ 	c #4A5252",
"% 	c #57734F",
"& 	c #6CA84C",
"* 	c #7ACA4A",
"= 	c #7DD24A",
"- 	c #6CA74D",
"; 	c #58734F",
"> 	c #4B5152",
", 	c #4A5152",
"' 	c #4A5151",
") 	c #4A5251",
"! 	c #526350",
"~ 	c #75BC4A",
"{ 	c #7BCC47",
"] 	c #7AC641",
"^ 	c #76BC3D",
"/ 	c #75B93C",
"( 	c #76BC3E",
"_ 	c #78C542",
": 	c #74BC4C",
"< 	c #526250",
"[ 	c #4A5051",
"} 	c #495150",
"| 	c #4A5150",
"1 	c #4A5050",
"2 	c #556F4F",
"3 	c #7CCF49",
"4 	c #77C441",
"5 	c #7DD04A",
"6 	c #495050",
"7 	c #50624F",
"8 	c #7CD04A",
"9 	c #77C03F",
"0 	c #7BCF4B",
"a 	c #4F614E",
"b 	c #494F50",
"c 	c #49504F",
"d 	c #485050",
"e 	c #75BC4B",
"f 	c #77C341",
"g 	c #73BB4B",
"h 	c #484F4F",
"i 	c #494F4F",
"j 	c #55704D",
"k 	c #7ACB47",
"l 	c #7BCD49",
"m 	c #55704E",
"n 	c #484F4E",
"o 	c #484E4E",
"p 	c #474F4E",
"q 	c #6BA64B",
"r 	c #78C541",
"s 	c #79C541",
"t 	c #6AA54B",
"u 	c #484E4F",
"v 	c #474D4E",
"w 	c #474E4E",
"x 	c #79C94A",
"y 	c #76BD3D",
"z 	c #7AC949",
"A 	c #484D4E",
"B 	c #474D4D",
"C 	c #474E4D",
"D 	c #7DD24B",
"E 	c #76B93C",
"F 	c #7CD24A",
"G 	c #464D4D",
"H 	c #7DD34A",
"I 	c #464D4C",
"J 	c #474D4C",
"K 	c #464C4C",
"L 	c #79C74A",
"M 	c #464C4B",
"N 	c #454C4C",
"O 	c #69A44B",
"P 	c #79C542",
"Q 	c #69A34B",
"R 	c #454C4B",
"S 	c #454B4B",
"T 	c #536D4A",
"U 	c #7BCC49",
"V 	c #444B4B",
"W 	c #444A4A",
"X 	c #444B4A",
"Y 	c #444A4B",
"Z 	c #73BA4A",
"` 	c #77C440",
" .	c #79C441",
"..	c #73BA49",
"+.	c #444A49",
"@.	c #43494A",
"#.	c #4C5C4A",
"$.	c #7CCF4A",
"%.	c #77BF3F",
"&.	c #4A5B4A",
"*.	c #434A49",
"=.	c #434949",
"-.	c #506949",
";.	c #78C442",
">.	c #50694A",
",.	c #434948",
"'.	c #434848",
").	c #4A5B48",
"!.	c #72BA49",
"~.	c #7BCD48",
"{.	c #77BD3D",
"].	c #72B849",
"^.	c #424949",
"/.	c #424848",
"(.	c #424948",
"_.	c #506B49",
":.	c #68A249",
"<.	c #79C849",
"[.	c #7CD249",
"}.	c #7CD149",
"|.	c #78C749",
"1.	c #69A249",
"2.	c #506A49",
"3.	c #424849",
"4.	c #424747",
"5.	c #414847",
"6.	c #414748",
"7.	c #424748",
"8.	c #414848",
"9.	c #424847",
"0.	c #414747",
". . . . . . . . . . . . . . . . . . . . . . . . ",
"+ + + + + + + + + + + + + + + + + + + + + + + + ",
"+ + + + + + + + + + + + + + + + + + + + + + + + ",
"+ + + + + + + + + + + + + + + + + + + + + + + + ",
"@ + @ + # $ # + % & * = = * - ; > + + + # + + + ",
", ' > ) @ ' ! ~ { ] ^ / / ( _ { : < , ' @ , @ ' ",
"[ [ } | 1 2 3 4 / / / / / / / / 4 5 2 [ ' [ } ' ",
"1 } 6 6 7 8 9 / / / / / / / / / / 9 0 a 1 } 6 [ ",
"b c c d e 4 / / / / / / / / / / / / f g 6 6 b b ",
"h h i j k / / / / / / / / / / / / / / l m i i h ",
"n o p q r / / / / / / / / / / / / / / s t h u u ",
"v w w x ^ / / / / / / / / / / / / / / y z w A o ",
"B B C D E / / / / / / / / / / / / / / E F C B B ",
"G G B H E / / / / / / / / / / / / / / E F G I J ",
"K K I x ^ / / / / / / / / / / / / / / y L K I K ",
"M N N O _ / / / / / / / / / / / / / / P Q K R S ",
"S S S T { / / / / / / / / / / / / / / U T S S V ",
"W X Y X Z ` / / / / / / / / / / / /  ...X V S W ",
"W W +.@.#.$.9 / / / / / / / / / / %.$.&.W W W W ",
"*.*.+.=.*.-.3 ;./ / / / / / / /  .8 >.@.=.=.=.W ",
"=.,.=.'.=.=.).!.~.s y / / {.r U ].).=.=.,.=.^.=.",
"^././.'./.(./.(._.:.<.[.}.|.1.2.3./././.(./././.",
"4.5.6.7.7.8.9./.8.6.9./.5.8.7././././.8.8.7././.",
"0.0.0.0.0.0.0.6.6.4.9.0.0.0.0.0.4.4.0.6.5.6.4.0."};
