/* XPM */
static char * close_pressed_xpm[] = {
"24 24 143 2",
"  	c None",
". 	c #313133",
"+ 	c #4B5252",
"@ 	c #4B5151",
"# 	c #4B5251",
"$ 	c #4A5252",
"% 	c #57734F",
"& 	c #6CA84C",
"* 	c #7ACA4A",
"= 	c #7DD24A",
"- 	c #6CA74D",
"; 	c #58734F",
"> 	c #4B5152",
", 	c #4A5152",
"' 	c #4A5151",
") 	c #4A5251",
"! 	c #526350",
"~ 	c #75BC4A",
"{ 	c #7BCC47",
"] 	c #7AC641",
"^ 	c #76BC3D",
"/ 	c #75B93C",
"( 	c #76BC3E",
"_ 	c #78C542",
": 	c #74BC4C",
"< 	c #526250",
"[ 	c #4A5051",
"} 	c #495150",
"| 	c #4A5150",
"1 	c #4A5050",
"2 	c #556F4F",
"3 	c #7CCF49",
"4 	c #77C441",
"5 	c #7DD04A",
"6 	c #495050",
"7 	c #50624F",
"8 	c #7CD04A",
"9 	c #77C03F",
"0 	c #7BCF4B",
"a 	c #4F614E",
"b 	c #494F50",
"c 	c #49504F",
"d 	c #485050",
"e 	c #75BC4B",
"f 	c #7EBD48",
"g 	c #ACD589",
"h 	c #79BB42",
"i 	c #77C341",
"j 	c #73BB4B",
"k 	c #484F4F",
"l 	c #494F4F",
"m 	c #55704D",
"n 	c #7ACB47",
"o 	c #FFFFFF",
"p 	c #D9ECC9",
"q 	c #ABD488",
"r 	c #7BCD49",
"s 	c #55704E",
"t 	c #484F4E",
"u 	c #484E4E",
"v 	c #474F4E",
"w 	c #6BA64B",
"x 	c #78C541",
"y 	c #78BB41",
"z 	c #D6EAC5",
"A 	c #DAECCA",
"B 	c #7ABB43",
"C 	c #79BB41",
"D 	c #D6EAC6",
"E 	c #79C541",
"F 	c #6AA54B",
"G 	c #484E4F",
"H 	c #474D4E",
"I 	c #474E4E",
"J 	c #79C94A",
"K 	c #76BD3D",
"L 	c #7AC949",
"M 	c #484D4E",
"N 	c #474D4D",
"O 	c #474E4D",
"P 	c #7DD24B",
"Q 	c #76B93C",
"R 	c #7CD24A",
"S 	c #464D4D",
"T 	c #7DD34A",
"U 	c #464D4C",
"V 	c #474D4C",
"W 	c #464C4C",
"X 	c #79C74A",
"Y 	c #464C4B",
"Z 	c #454C4C",
"` 	c #69A44B",
" .	c #79C542",
"..	c #69A34B",
"+.	c #454C4B",
"@.	c #454B4B",
"#.	c #536D4A",
"$.	c #7BCC49",
"%.	c #444B4B",
"&.	c #444A4A",
"*.	c #444B4A",
"=.	c #444A4B",
"-.	c #73BA4A",
";.	c #77C440",
">.	c #79C441",
",.	c #73BA49",
"'.	c #444A49",
").	c #43494A",
"!.	c #4C5C4A",
"~.	c #7CCF4A",
"{.	c #77BF3F",
"].	c #4A5B4A",
"^.	c #434A49",
"/.	c #434949",
"(.	c #506949",
"_.	c #78C442",
":.	c #50694A",
"<.	c #434948",
"[.	c #434848",
"}.	c #4A5B48",
"|.	c #72BA49",
"1.	c #7BCD48",
"2.	c #77BD3D",
"3.	c #72B849",
"4.	c #424949",
"5.	c #424848",
"6.	c #424948",
"7.	c #506B49",
"8.	c #68A249",
"9.	c #79C849",
"0.	c #7CD249",
"a.	c #7CD149",
"b.	c #78C749",
"c.	c #69A249",
"d.	c #506A49",
"e.	c #424849",
"f.	c #424747",
"g.	c #414847",
"h.	c #414748",
"i.	c #424748",
"j.	c #414848",
"k.	c #424847",
"l.	c #414747",
". . . . . . . . . . . . . . . . . . . . . . . . ",
"+ + + + + + + + + + + + + + + + + + + + + + + + ",
"+ + + + + + + + + + + + + + + + + + + + + + + + ",
"+ + + + + + + + + + + + + + + + + + + + + + + + ",
"@ + @ + # $ # + % & * = = * - ; > + + + # + + + ",
", ' > ) @ ' ! ~ { ] ^ / / ( _ { : < , ' @ , @ ' ",
"[ [ } | 1 2 3 4 / / / / / / / / 4 5 2 [ ' [ } ' ",
"1 } 6 6 7 8 9 / / / / / / / / / / 9 0 a 1 } 6 [ ",
"b c c d e 4 / f g h / / / / h g f / i j 6 6 b b ",
"k k l m n / / g o p h / / h p o q / / r s l l k ",
"t u v w x / / y z o A B C D o p B / / E F k G G ",
"H I I J ^ / / / h p o p p o p h / / / K L I M u ",
"N N O P Q / / / / y z o o p B / / / / Q R O N N ",
"S S N T Q / / / / C z o o p B / / / / Q R S U V ",
"W W U J ^ / / / h p o p p o p h / / / K X W U W ",
"Y Z Z ` _ / / C z o p B y z o A B / /  ...W +.@.",
"@.@.@.#.{ / / g o p h / / h p o g / / $.#.@.@.%.",
"&.*.=.*.-.;./ f q h / / / / h q f / >.,.*.%.@.&.",
"&.&.'.).!.~.9 / / / / / / / / / / {.~.].&.&.&.&.",
"^.^.'./.^.(.3 _./ / / / / / / / >.8 :.)./././.&.",
"/.<./.[././.}.|.1.E K / / 2.x $.3.}././.<./.4./.",
"4.5.5.[.5.6.5.6.7.8.9.0.a.b.c.d.e.5.5.5.6.5.5.5.",
"f.g.h.i.i.j.k.5.j.h.k.5.g.j.i.5.5.5.5.j.j.i.5.5.",
"l.l.l.l.l.l.l.h.h.f.k.l.l.l.l.l.f.f.l.h.g.h.f.l."};
