/* XPM */
static char * hide_inactive_xpm[] = {
"24 24 101 2",
"  	c None",
". 	c #313133",
"+ 	c #4B5252",
"@ 	c #4B5151",
"# 	c #4B5251",
"$ 	c #4A5252",
"% 	c #525857",
"& 	c #5E6061",
"* 	c #666767",
"= 	c #696969",
"- 	c #5F6161",
"; 	c #535857",
"> 	c #4B5152",
", 	c #4A5152",
"' 	c #4A5151",
") 	c #4A5251",
"! 	c #4F5454",
"~ 	c #636464",
"{ 	c #646464",
"] 	c #585858",
"^ 	c #505050",
"/ 	c #4E4E4E",
"( 	c #515151",
"_ 	c #636363",
": 	c #646565",
"< 	c #4A5051",
"[ 	c #495150",
"} 	c #4A5150",
"| 	c #4A5050",
"1 	c #505656",
"2 	c #686969",
"3 	c #565656",
"4 	c #575757",
"5 	c #676868",
"6 	c #495050",
"7 	c #4D5353",
"8 	c #535353",
"9 	c #4D5454",
"0 	c #494F50",
"a 	c #49504F",
"b 	c #485050",
"c 	c #626464",
"d 	c #484F4F",
"e 	c #494F4F",
"f 	c #505555",
"g 	c #484F4E",
"h 	c #484E4E",
"i 	c #474F4E",
"j 	c #5D6060",
"k 	c #5D5F5F",
"l 	c #484E4F",
"m 	c #474D4E",
"n 	c #474E4E",
"o 	c #666666",
"p 	c #484D4E",
"q 	c #474D4D",
"r 	c #474E4D",
"s 	c #686868",
"t 	c #464D4D",
"u 	c #464D4C",
"v 	c #474D4C",
"w 	c #464C4C",
"x 	c #464C4B",
"y 	c #454C4C",
"z 	c #5C5E5E",
"A 	c #454C4B",
"B 	c #454B4B",
"C 	c #4E5252",
"D 	c #626363",
"E 	c #4E5352",
"F 	c #444B4B",
"G 	c #444A4A",
"H 	c #444B4A",
"I 	c #444A4B",
"J 	c #444A49",
"K 	c #43494A",
"L 	c #494E4E",
"M 	c #676767",
"N 	c #434A49",
"O 	c #434949",
"P 	c #4C5150",
"Q 	c #434948",
"R 	c #434848",
"S 	c #484D4D",
"T 	c #616262",
"U 	c #424949",
"V 	c #424848",
"W 	c #424948",
"X 	c #4B5050",
"Y 	c #5A5D5D",
"Z 	c #656666",
"` 	c #5B5D5E",
" .	c #4B5051",
"..	c #424849",
"+.	c #424747",
"@.	c #414847",
"#.	c #414748",
"$.	c #424748",
"%.	c #414848",
"&.	c #424847",
"*.	c #414747",
". . . . . . . . . . . . . . . . . . . . . . . . ",
"+ + + + + + + + + + + + + + + + + + + + + + + + ",
"+ + + + + + + + + + + + + + + + + + + + + + + + ",
"+ + + + + + + + + + + + + + + + + + + + + + + + ",
"@ + @ + # $ # + % & * = = * - ; > + + + # + + + ",
", ' > ) @ ' ! ~ { ] ^ / / ( ] _ : ! , ' @ , @ ' ",
"< < [ } | 1 2 3 / / / / / / / / 4 5 1 < ' < [ ' ",
"| [ 6 6 7 2 8 / / / / / / / / / / 8 5 9 | [ 6 < ",
"0 a a b ~ 3 / / / / / / / / / / / / 4 c 6 6 0 0 ",
"d d e f _ / / / / / / / / / / / / / / { f e e d ",
"g h i j ] / / / / / / / / / / / / / / ] k d l l ",
"m n n o ^ / / / / / / / / / / / / / / ( o n p h ",
"q q r s / / / / / / / / / / / / / / / / = r q q ",
"t t q 2 / / / / / / / / / / / / / / / / 2 t u v ",
"w w u o ^ / / / / / / / / / / / / / / ( : w u w ",
"x y y z ] / / / / / / / / / / / / / / ] z w A B ",
"B B B C D / / / / / / / / / / / / / / ~ E B B F ",
"G H I H c 3 / / / / / / / / / / / / 4 D H F B G ",
"G G J K L M 8 / / / / / / / / / / 8 s n G G G G ",
"N N J O N P s ] / / / / / / / / 4 M @ K O O O G ",
"O Q O R O O S T ~ ] ( / / ( ] ~ T u O O Q O U O ",
"U V V R V W V W X Y Z 2 2 : `  ...V V V W V V V ",
"+.@.#.$.$.%.&.V %.#.&.V @.%.$.V V V V %.%.$.V V ",
"*.*.*.*.*.*.*.#.#.+.&.*.*.*.*.*.+.+.*.#.@.#.+.*."};
