/* XPM */
static char * maximize_prelight_xpm[] = {
"24 24 117 2",
"  	c None",
". 	c #313133",
"+ 	c #4B5252",
"@ 	c #4B5151",
"# 	c #4B5251",
"$ 	c #4A5252",
"% 	c #5A605F",
"& 	c #717374",
"* 	c #818282",
"= 	c #868686",
"- 	c #717474",
"; 	c #5A5F5E",
"> 	c #4B5152",
", 	c #4A5152",
"' 	c #4A5151",
") 	c #4A5251",
"! 	c #545959",
"~ 	c #7B7C7C",
"{ 	c #818181",
"] 	c #787878",
"^ 	c #707070",
"/ 	c #6D6D6D",
"( 	c #777777",
"_ 	c #7A7C7C",
": 	c #535858",
"< 	c #4A5051",
"[ 	c #495150",
"} 	c #4A5150",
"| 	c #4A5050",
"1 	c #575D5D",
"2 	c #838383",
"3 	c #757575",
"4 	c #767676",
"5 	c #838484",
"6 	c #495050",
"7 	c #525858",
"8 	c #848484",
"9 	c #727272",
"0 	c #505656",
"a 	c #494F50",
"b 	c #49504F",
"c 	c #485050",
"d 	c #7C7D7D",
"e 	c #929292",
"f 	c #B1B1B1",
"g 	c #8F8F8F",
"h 	c #797B7B",
"i 	c #484F4F",
"j 	c #494F4F",
"k 	c #585D5D",
"l 	c #737373",
"m 	c #DADADA",
"n 	c #FFFFFF",
"o 	c #B6B6B6",
"p 	c #484F4E",
"q 	c #484E4E",
"r 	c #474F4E",
"s 	c #707373",
"t 	c #6F7272",
"u 	c #484E4F",
"v 	c #474D4E",
"w 	c #474E4E",
"x 	c #808181",
"y 	c #959595",
"z 	c #484D4E",
"A 	c #474D4D",
"B 	c #474E4D",
"C 	c #858585",
"D 	c #6E6E6E",
"E 	c #DDDDDD",
"F 	c #747474",
"G 	c #464D4D",
"H 	c #464D4C",
"I 	c #474D4C",
"J 	c #464C4C",
"K 	c #808080",
"L 	c #464C4B",
"M 	c #454C4C",
"N 	c #707272",
"O 	c #6E7070",
"P 	c #454C4B",
"Q 	c #454B4B",
"R 	c #565A5A",
"S 	c #545A59",
"T 	c #444B4B",
"U 	c #444A4A",
"V 	c #444B4A",
"W 	c #444A4B",
"X 	c #797A7A",
"Y 	c #949494",
"Z 	c #BBBBBB",
"` 	c #999999",
" .	c #444A49",
"..	c #43494A",
"+.	c #4D5252",
"@.	c #434A49",
"#.	c #434949",
"$.	c #535857",
"%.	c #828383",
"&.	c #434948",
"*.	c #434848",
"=.	c #4B5050",
"-.	c #787A7A",
";.	c #424949",
">.	c #424848",
",.	c #424948",
"'.	c #6D6F6F",
").	c #7F8080",
"!.	c #525758",
"~.	c #424849",
"{.	c #424747",
"].	c #414847",
"^.	c #414748",
"/.	c #424748",
"(.	c #414848",
"_.	c #424847",
":.	c #414747",
". . . . . . . . . . . . . . . . . . . . . . . . ",
"+ + + + + + + + + + + + + + + + + + + + + + + + ",
"+ + + + + + + + + + + + + + + + + + + + + + + + ",
"+ + + + + + + + + + + + + + + + + + + + + + + + ",
"@ + @ + # $ # + % & * = = * - ; > + + + # + + + ",
", ' > ) @ ' ! ~ { ] ^ / / ^ ( { _ : , ' @ , @ ' ",
"< < [ } | 1 2 3 / / / / / / / / 4 5 1 < ' < [ ' ",
"| [ 6 6 7 8 9 / / / / / / / / / / 9 8 0 | [ 6 < ",
"a b b c d 3 / / / / e f f f f f g / 3 h 6 6 a a ",
"i i j k { / / / / / l m n n n n o / / { k j j i ",
"p q r s ( / / / / / / l m n n n o / / ( t i u u ",
"v w w x ^ / / y l / / / l m n n o / / ^ * w z q ",
"A A B C D / / o E F / / / l m n o / / D = B A A ",
"G G A = D / / o n E F / / / l m o / / D 8 G H I ",
"J J H x ^ / / o n n E F / / / l y / / ^ K J H J ",
"L M M N ( / / o n n n E F / / / / / / ( O J P Q ",
"Q Q Q R x / / o n n n n E F / / / / / x S Q Q T ",
"U V W V X 3 / Y Z Z Z Z Z ` / / / / ( h V T Q U ",
"U U  ...+.5 9 / / / / / / / / / / 9 5 + U U U U ",
"@.@. .#.@.$.%.4 / / / / / / / / 4 2 7 ..#.#.#.U ",
"#.&.#.*.#.#.=.-.x ( ^ / / ^ ( x X } #.#.&.#.;.#.",
";.>.>.*.>.,.>.,.: '.x = = ).O !.~.>.>.>.,.>.>.>.",
"{.].^././.(._.>.(.^._.>.].(./.>.>.>.>.(.(./.>.>.",
":.:.:.:.:.:.:.^.^.{._.:.:.:.:.:.{.{.:.^.].^.{.:."};
